<svg xmlns="http://www.w3.org/2000/svg" viewBox="0 0 74.36 74.36"><defs><style>.cls-1{fill:#006387;}.cls-2{fill:#01556b;}.cls-3{fill:#3a3a3a;}.cls-4{fill:#898989;}.cls-5{fill:#5d5d5d;}</style></defs><title>Asset 5</title><g id="Layer_2" data-name="Layer 2"><g id="Capa_1" data-name="Capa 1"><g id="_Group_" data-name="&lt;Group&gt;"><g id="_Group_2" data-name="&lt;Group&gt;"><circle id="_Path_" data-name="&lt;Path&gt;" class="cls-1" cx="37.18" cy="37.18" r="37.18"/><path id="_Path_2" data-name="&lt;Path&gt;" class="cls-2" d="M74.27,39.71,65.15,30.1l-6.7,1.39-1.61-1.61H25.75L21.95,36l-2,1L14.38,40.6l4.82,4.82-3.79,9L35.3,74.31q.93,0,1.88,0A37.18,37.18,0,0,0,74.27,39.71Z"/><path id="_Path_3" data-name="&lt;Path&gt;" class="cls-3" d="M26.35,50.68h-.53l2.82-16.31H19.48L16.64,50.75a2.29,2.29,0,0,0,.54,4.51h9.16a2.29,2.29,0,1,0,0-4.58Z"/><path id="_Path_4" data-name="&lt;Path&gt;" class="cls-4" d="M64.47,31.53H50.73a.88.88,0,0,1,0-1.75H64.47a.88.88,0,1,1,0,1.75Z"/><g id="_Group_3" data-name="&lt;Group&gt;"><path id="_Path_5" data-name="&lt;Path&gt;" class="cls-5" d="M49.86,30.75a.87.87,0,0,0,.87.78H64.47a.87.87,0,0,0,.87-.78Z"/><path id="_Path_6" data-name="&lt;Path&gt;" class="cls-5" d="M48.85,25.76H44.47a.85.85,0,0,0-.85.85v8.57a.85.85,0,0,0,.85.85h4.39a.85.85,0,0,0,.39-.1l4.81-2.51a.85.85,0,0,0,.46-.76V29.13a.85.85,0,0,0-.46-.76l-4.81-2.51A.85.85,0,0,0,48.85,25.76Z"/></g><path id="_Path_7" data-name="&lt;Path&gt;" class="cls-3" d="M43.61,30.75v4.43a.85.85,0,0,0,.85.85h4.39a.85.85,0,0,0,.39-.1l4.81-2.51a.85.85,0,0,0,.46-.76V30.75Z"/><path id="_Path_8" data-name="&lt;Path&gt;" class="cls-4" d="M38.19,41.87h-21A3.83,3.83,0,0,1,13.39,38V25.43a3.83,3.83,0,0,1,3.83-3.83h22a6.6,6.6,0,0,1,6.6,6.6v6A7.63,7.63,0,0,1,38.19,41.87Z"/><g id="_Group_4" data-name="&lt;Group&gt;"><path id="_Path_9" data-name="&lt;Path&gt;" class="cls-5" d="M13.39,30.75V38a3.83,3.83,0,0,0,3.83,3.83h21a7.63,7.63,0,0,0,7.63-7.63V30.75H13.39Z"/><path id="_Path_10" data-name="&lt;Path&gt;" class="cls-5" d="M27,28.4H18.36a1.67,1.67,0,0,1-1.67-1.67h0a1.67,1.67,0,0,1,1.67-1.67H27a1.67,1.67,0,0,1,1.67,1.67h0A1.67,1.67,0,0,1,27,28.4Z"/></g></g></g></g></g></svg>