<svg xmlns="http://www.w3.org/2000/svg" viewBox="0 0 74.36 74.36"><defs><style>.cls-1{fill:#006387;}.cls-2{fill:#01556b;}.cls-3{fill:#fd8469;}.cls-4{fill:#fc6f58;}.cls-5{fill:#f1543f;}.cls-6{fill:#eca859;}.cls-7{fill:#f57031;}</style></defs><title>Asset 6</title><g id="Layer_2" data-name="Layer 2"><g id="Capa_1" data-name="Capa 1"><g id="_Group_" data-name="&lt;Group&gt;"><g id="_Group_2" data-name="&lt;Group&gt;"><circle id="_Path_" data-name="&lt;Path&gt;" class="cls-1" cx="37.18" cy="37.18" r="37.18"/><path id="_Path_2" data-name="&lt;Path&gt;" class="cls-2" d="M14.61,50,39,74.32A37.2,37.2,0,0,0,73,47.11L40.54,14.54l-5.35,2.52L33.8,21.11,36.68,24v15.1Z"/><rect id="_Path_3" data-name="&lt;Path&gt;" class="cls-3" x="36.05" y="21.38" width="2.25" height="16.52"/><g id="_Group_3" data-name="&lt;Group&gt;"><rect id="_Path_4" data-name="&lt;Path&gt;" class="cls-4" x="37.22" y="21.38" width="1.08" height="16.52"/><circle id="_Path_5" data-name="&lt;Path&gt;" class="cls-4" cx="37.18" cy="17.83" r="4.71"/></g><path id="_Path_6" data-name="&lt;Path&gt;" class="cls-5" d="M41.89,17.83a4.71,4.71,0,0,0-4.67-4.71v9.41A4.71,4.71,0,0,0,41.89,17.83Z"/><rect id="_Path_7" data-name="&lt;Path&gt;" class="cls-3" x="19.68" y="41" width="18.47" height="2.25" transform="translate(-15.79 17.38) rotate(-26.57)"/><rect id="_Path_8" data-name="&lt;Path&gt;" class="cls-4" x="44.31" y="32.89" width="2.25" height="18.47" transform="translate(-12.56 63.93) rotate(-63.43)"/><circle id="_Path_9" data-name="&lt;Path&gt;" class="cls-6" cx="37.18" cy="37.33" r="7.39"/><path id="_Path_10" data-name="&lt;Path&gt;" class="cls-7" d="M44.57,37.33a7.39,7.39,0,0,0-7.34-7.38V44.71A7.39,7.39,0,0,0,44.57,37.33Z"/><circle id="_Path_11" data-name="&lt;Path&gt;" class="cls-4" cx="18.3" cy="47.05" r="4.71"/><circle id="_Path_12" data-name="&lt;Path&gt;" class="cls-5" cx="56.06" cy="47.05" r="4.71"/></g></g></g></g></svg>