<svg xmlns="http://www.w3.org/2000/svg" viewBox="0 0 74.36 74.36"><defs><style>.cls-1{fill:#006387;}.cls-2{fill:#01556b;}.cls-3{fill:#fc6f58;}.cls-4{fill:#f1543f;}.cls-5{fill:#fff;}.cls-6{fill:#f5fcfc;}.cls-7{fill:#eca859;}</style></defs><title>Asset 5</title><g id="Layer_2" data-name="Layer 2"><g id="Capa_1" data-name="Capa 1"><g id="_Group_" data-name="&lt;Group&gt;"><g id="_Group_2" data-name="&lt;Group&gt;"><circle id="_Path_" data-name="&lt;Path&gt;" class="cls-1" cx="37.18" cy="37.18" r="37.18"/><path id="_Path_2" data-name="&lt;Path&gt;" class="cls-2" d="M74.3,39.25,54.5,19.45,33.09,42.27l-11.7,14,18,18A37.18,37.18,0,0,0,74.3,39.25Z"/><circle id="_Path_3" data-name="&lt;Path&gt;" class="cls-3" cx="37.18" cy="37.18" r="24.79"/><path id="_Path_4" data-name="&lt;Path&gt;" class="cls-4" d="M62,37.18A24.79,24.79,0,0,0,37.18,12.39V62A24.79,24.79,0,0,0,62,37.18Z"/><circle id="_Path_5" data-name="&lt;Path&gt;" class="cls-5" cx="37.18" cy="37.18" r="20.66"/><path id="_Path_6" data-name="&lt;Path&gt;" class="cls-6" d="M57.84,37.18A20.66,20.66,0,0,0,37.18,16.52V57.84A20.66,20.66,0,0,0,57.84,37.18Z"/><circle id="_Path_7" data-name="&lt;Path&gt;" class="cls-3" cx="37.18" cy="37.18" r="16.52"/><path id="_Path_8" data-name="&lt;Path&gt;" class="cls-4" d="M53.7,37.18A16.52,16.52,0,0,0,37.18,20.66v33A16.52,16.52,0,0,0,53.7,37.18Z"/><circle id="_Path_9" data-name="&lt;Path&gt;" class="cls-5" cx="37.18" cy="37.18" r="12.39"/><path id="_Path_10" data-name="&lt;Path&gt;" class="cls-6" d="M49.57,37.18A12.39,12.39,0,0,0,37.18,24.79V49.57A12.39,12.39,0,0,0,49.57,37.18Z"/><circle id="_Path_11" data-name="&lt;Path&gt;" class="cls-3" cx="37.18" cy="37.18" r="8.26"/><path id="_Path_12" data-name="&lt;Path&gt;" class="cls-4" d="M45.44,37.18a8.26,8.26,0,0,0-8.26-8.26V45.44A8.26,8.26,0,0,0,45.44,37.18Z"/><path id="_Path_13" data-name="&lt;Path&gt;" class="cls-7" d="M57.84,59.71a1.87,1.87,0,0,1-1.33-.55L35.85,38.51a1.88,1.88,0,0,1,2.66-2.66L59.16,56.51a1.88,1.88,0,0,1-1.33,3.21Z"/></g></g></g></g></svg>