<svg xmlns="http://www.w3.org/2000/svg" viewBox="0 0 47.8 47.8"><defs><style>.cls-1{fill:#006387;}.cls-2{fill:#01556b;}.cls-3{fill:#fff;}.cls-4{fill:#c8c6cc;}.cls-5{fill:#dcdbdd;}.cls-6{fill:#f9b54c;}.cls-7{fill:#db9b45;}.cls-8{fill:#f4a200;}.cls-9{fill:#d38802;}</style></defs><title>Asset 1</title><g id="Layer_2" data-name="Layer 2"><g id="Capa_1" data-name="Capa 1"><g id="_Group_" data-name="&lt;Group&gt;"><circle id="_Path_" data-name="&lt;Path&gt;" class="cls-1" cx="23.9" cy="23.9" r="23.9"/><path id="_Path_2" data-name="&lt;Path&gt;" class="cls-2" d="M47.8,23.9a23.82,23.82,0,0,0-1.88-9.31L37.43,6.11H27.79l-1.3-1.66H24.84V6.11H14.41V7.19l1.47,1.3a35.45,35.45,0,0,0-.68,6.33,52.84,52.84,0,0,0,1.07,9L19.52,27H17.05l-3.9-3.94H3v5l4.59,4.58v1.68q0,.12,0,.23v.07c0,.05,0,.1,0,.16v.54l0,.14v.08l0,.15v.07l0,.16v.06l0,.17v0l0,.19v0a8.64,8.64,0,0,0,2.6,4.29l5.75,5.75A23.92,23.92,0,0,0,47.8,23.9Z"/><rect id="_Path_3" data-name="&lt;Path&gt;" class="cls-3" x="24.84" y="4.45" width="1.65" height="22.87"/><rect id="_Path_4" data-name="&lt;Path&gt;" class="cls-4" x="25.66" y="4.45" width="0.83" height="22.87"/><path id="_Path_5" data-name="&lt;Path&gt;" class="cls-3" d="M36.65,23.79H16.27a52.84,52.84,0,0,1-1.07-9,39,39,0,0,1,1.07-8.16H36.65a42.21,42.21,0,0,0-1.07,8.57A42.22,42.22,0,0,0,36.65,23.79Z"/><path id="_Path_6" data-name="&lt;Path&gt;" class="cls-5" d="M35.57,15.22a42.21,42.21,0,0,0,1.07,8.57h-11V6.65h11A42.21,42.21,0,0,0,35.57,15.22Z"/><path id="_Path_7" data-name="&lt;Path&gt;" class="cls-6" d="M13.16,27V23.09H3v5H7.61v6.27A8.63,8.63,0,0,0,16.22,43h15.6a8.63,8.63,0,0,0,8.61-8.61V27Z"/><g id="_Group_2" data-name="&lt;Group&gt;"><path id="_Path_8" data-name="&lt;Path&gt;" class="cls-7" d="M40.43,27v7.36A8.63,8.63,0,0,1,31.82,43H25.66V27Z"/><path id="_Path_9" data-name="&lt;Path&gt;" class="cls-8" d="M40.43,32.71H7.61v1.68A8.53,8.53,0,0,0,8.41,38H39.64a8.53,8.53,0,0,0,.79-3.6Z"/></g><path id="_Path_10" data-name="&lt;Path&gt;" class="cls-9" d="M40.43,32.71v1.68a8.52,8.52,0,0,1-.79,3.6h-14V32.71Z"/><g id="_Group_3" data-name="&lt;Group&gt;"><circle id="_Path_11" data-name="&lt;Path&gt;" class="cls-3" cx="16.08" cy="29.96" r="1.45"/><circle id="_Path_12" data-name="&lt;Path&gt;" class="cls-3" cx="22.47" cy="29.96" r="1.45"/></g><g id="_Group_4" data-name="&lt;Group&gt;"><circle id="_Path_13" data-name="&lt;Path&gt;" class="cls-5" cx="28.86" cy="29.96" r="1.45"/><circle id="_Path_14" data-name="&lt;Path&gt;" class="cls-5" cx="35.25" cy="29.96" r="1.45"/></g><rect id="_Path_15" data-name="&lt;Path&gt;" class="cls-6" x="14.41" y="6.11" width="23.02" height="1.08"/><rect id="_Path_16" data-name="&lt;Path&gt;" class="cls-7" x="25.66" y="6.11" width="11.78" height="1.08"/><g id="_Group_5" data-name="&lt;Group&gt;"><path id="_Path_17" data-name="&lt;Path&gt;" class="cls-3" d="M18.88,14.64a.88.88,0,0,1,.77-.57.83.83,0,0,1-.23-.9.89.89,0,0,1,1.13-.52.84.84,0,0,1,.54,1.08l0,.11.55.18q0,.08,0,.17a4,4,0,0,0,.21,1.29l-1.2-.4,0,.12a.9.9,0,0,1-1.13.52A.84.84,0,0,1,18.88,14.64Z"/><path id="_Path_18" data-name="&lt;Path&gt;" class="cls-3" d="M22.63,17.8l-1.6.53,0,.11a.84.84,0,0,1-.54,1.08A.89.89,0,0,1,19.41,19a.83.83,0,0,1,.23-.9.88.88,0,0,1-.77-.57.84.84,0,0,1,.54-1.08.89.89,0,0,1,1.13.52l0,.12,1-.35A1.56,1.56,0,0,0,22.63,17.8Z"/><path id="_Path_19" data-name="&lt;Path&gt;" class="cls-3" d="M32.4,16.88a.82.82,0,0,1,0,.66.88.88,0,0,1-.77.57.83.83,0,0,1,.23.9.84.84,0,0,1-.27.38l-.11.07a.91.91,0,0,1-.56.11l-.11,0-.07,0a.84.84,0,0,1-.54-1.08l0-.11-1.6-.53a1.56,1.56,0,0,0,1-1.05l1,.35a.87.87,0,0,1,1.16-.64.88.88,0,0,1,.35.21l0,0,0,.05Z"/><path id="_Path_20" data-name="&lt;Path&gt;" class="cls-3" d="M30.74,15.09l-1.2.4h0a4,4,0,0,0,.21-1.29q0-.09,0-.17l.55-.18,0-.11a.84.84,0,0,1,.54-1.08.92.92,0,0,1,.68,0l.12.07a.84.84,0,0,1,.15.13l0,.05.08.11.06.13a.83.83,0,0,1-.23.9.88.88,0,0,1,.77.57.82.82,0,0,1,0,.66l-.07.11,0,.05,0,0a.88.88,0,0,1-.35.22.91.91,0,0,1-1-.29l-.08-.11-.06-.13A.88.88,0,0,1,30.74,15.09Z"/></g><g id="_Group_6" data-name="&lt;Group&gt;"><path id="_Path_21" data-name="&lt;Path&gt;" class="cls-5" d="M32.4,16.88a.82.82,0,0,1,0,.66.88.88,0,0,1-.77.57.83.83,0,0,1,.23.9.84.84,0,0,1-.27.38l-.11.07a.91.91,0,0,1-.49.12H31l-.11,0-.07,0a.84.84,0,0,1-.54-1.08l0-.11-1.6-.53a1.56,1.56,0,0,0,1-1.05l1,.35a.87.87,0,0,1,1.16-.64.88.88,0,0,1,.35.21l0,0,0,.05Z"/><path id="_Path_22" data-name="&lt;Path&gt;" class="cls-5" d="M29.54,15.49a4,4,0,0,0,.21-1.29q0-.09,0-.17l.55-.18,0-.11a.84.84,0,0,1,.54-1.08.92.92,0,0,1,.68,0l.12.07a.89.89,0,0,1,.15.13l0,.05.08.11.06.13a.83.83,0,0,1-.23.9.88.88,0,0,1,.77.57.82.82,0,0,1,0,.66l-.07.11,0,.05,0,0a.88.88,0,0,1-.35.22.91.91,0,0,1-1-.29l-.08-.11-.06-.13a.89.89,0,0,1,0-.12h0Z"/></g><path id="_Compound_Path_" data-name="&lt;Compound Path&gt;" class="cls-3" d="M28.75,15.56a3.37,3.37,0,1,0-6.18,0A1,1,0,0,0,23.79,17a3.37,3.37,0,0,0,.38.22V18.3a.46.46,0,0,0,.46.46h.05V17.54h.44v1.22h.32V17.54h.44v1.22h.32V17.54h.44v1.22h.05a.46.46,0,0,0,.46-.46V17.25a3.37,3.37,0,0,0,.38-.22,1,1,0,0,0,1.22-1.47Zm-4.27-.77h-.33a.65.65,0,0,1-.64-.64v-.33a.65.65,0,0,1,.64-.64h.33a.65.65,0,0,1,.64.64v.33A.65.65,0,0,1,24.48,14.79Zm1.58,1.33h-.81a.25.25,0,0,1-.22-.38l.2-.35.2-.35a.25.25,0,0,1,.43,0l.2.35.2.35A.25.25,0,0,1,26.07,16.12Zm1.75-2a.65.65,0,0,1-.64.64h-.33a.65.65,0,0,1-.64-.64v-.33a.65.65,0,0,1,.64-.64h.33a.65.65,0,0,1,.64.64Z"/><path id="_Compound_Path_2" data-name="&lt;Compound Path&gt;" class="cls-5" d="M28.75,15.56a3.37,3.37,0,0,0-3.09-4.7v4.06a.25.25,0,0,1,.22.13l.2.35.2.35a.25.25,0,0,1-.22.38h-.41v1.42h.22v1.22h.32V17.54h.44v1.22h.05a.46.46,0,0,0,.46-.46V17.25a3.31,3.31,0,0,0,.38-.22,1,1,0,0,0,1.22-1.47Zm-.94-1.41a.65.65,0,0,1-.64.64h-.33a.65.65,0,0,1-.64-.64v-.33a.65.65,0,0,1,.64-.64h.33a.65.65,0,0,1,.64.64Z"/></g></g></g></svg>