<svg xmlns="http://www.w3.org/2000/svg" viewBox="0 0 74.36 74.36"><defs><style>.cls-1{fill:#006387;}.cls-2{fill:#01556b;}.cls-3{fill:#fff;}.cls-4{fill:#d0d1d3;}.cls-5{fill:#eca859;}.cls-6{fill:#f57031;}</style></defs><title>Asset 3</title><g id="Layer_2" data-name="Layer 2"><g id="Capa_1" data-name="Capa 1"><g id="_Group_" data-name="&lt;Group&gt;"><g id="_Group_2" data-name="&lt;Group&gt;"><circle id="_Path_" data-name="&lt;Path&gt;" class="cls-1" cx="37.18" cy="37.18" r="37.18"/><path id="_Path_2" data-name="&lt;Path&gt;" class="cls-2" d="M73.91,43,37.78,6.71l-.61,5.56H33.85L29.12,17v7l2.15,2.88-.35.95-.43,4.9.26,1.86L22.65,61.71,35.17,74.31q1,.05,2,.05A37.19,37.19,0,0,0,73.91,43Z"/><path id="_Path_3" data-name="&lt;Path&gt;" class="cls-3" d="M38.18,11.45V7.51a1,1,0,1,0-2,0v3.94a9.26,9.26,0,0,0-6.7,14.36,1,1,0,1,0,1.66-1.11,7.26,7.26,0,1,1,12.08,0,1,1,0,0,0,1.66,1.11,9.26,9.26,0,0,0-6.7-14.36Z"/><path id="_Path_4" data-name="&lt;Path&gt;" class="cls-4" d="M38.18,11.45V7.51a1,1,0,0,0-1-1h0V13.4h0a7.26,7.26,0,0,1,6,11.29,1,1,0,0,0,1.66,1.11,9.26,9.26,0,0,0-6.7-14.36Z"/><path id="_Path_5" data-name="&lt;Path&gt;" class="cls-3" d="M22.83,61.77h-.09a.38.38,0,0,1-.28-.45c.45-1.86,1-4.07,1.66-6.25a.38.38,0,1,1,.72.22c-.65,2.17-1.2,4.36-1.65,6.21A.38.38,0,0,1,22.83,61.77Z"/><path id="_Path_6" data-name="&lt;Path&gt;" class="cls-5" d="M23.34,56l-.75-4.09a6.94,6.94,0,0,1,.16-3.19l7-24.21a2.07,2.07,0,0,1,2.56-1.41h0a2.07,2.07,0,0,1,1.41,2.56L24.92,56.07A.81.81,0,0,1,23.34,56Z"/><path id="_Path_7" data-name="&lt;Path&gt;" class="cls-3" d="M51.53,61.77a.38.38,0,0,1-.36-.29c-.45-1.86-1-4-1.65-6.21a.38.38,0,0,1,.72-.22c.66,2.19,1.21,4.39,1.66,6.25a.38.38,0,0,1-.28.45Z"/><path id="_Path_8" data-name="&lt;Path&gt;" class="cls-6" d="M51,56l.75-4.09a6.94,6.94,0,0,0-.16-3.19l-7-24.21A2.07,2.07,0,0,0,42,23.09h0a2.07,2.07,0,0,0-1.41,2.56l8.85,30.42A.81.81,0,0,0,51,56Z"/><path id="_Path_9" data-name="&lt;Path&gt;" class="cls-3" d="M49.57,38.18H24.79a1,1,0,1,1,0-2H49.57a1,1,0,1,1,0,2Z"/><path id="_Path_10" data-name="&lt;Path&gt;" class="cls-4" d="M49.57,36.18H37.16v2H49.57a1,1,0,1,0,0-2Z"/></g></g></g></g></svg>