<svg xmlns="http://www.w3.org/2000/svg" xmlns:xlink="http://www.w3.org/1999/xlink" viewBox="0 0 50.24 49.04"><defs><style>.cls-1{fill:#006387;}.cls-2{clip-path:url(#clip-path);}.cls-3{fill:#dda858;}.cls-4{fill:#dfe1e4;}.cls-5{fill:#e4fdff;}.cls-6{fill:#97ba52;}.cls-7{fill:#74933e;}.cls-8{fill:#c1d5d6;}.cls-9{fill:#ccd2d4;}.cls-10{fill:#e2856c;}.cls-11{fill:#01556b;}.cls-12{fill:#69b7c8;}.cls-13{fill:#03d6db;}.cls-14{fill:#b8d3a6;}.cls-15{fill:#00b1bd;}.cls-16{fill:#f4a200;}.cls-17{fill:#9bca91;}.cls-18{fill:#ffd15d;}.cls-19{fill:#e3c642;}.cls-20{fill:#dfe148;}.cls-21{fill:#db9b45;}.cls-22{fill:#c1853e;}</style><clipPath id="clip-path"><circle id="_Clipping_Path_" data-name="&lt;Clipping Path&gt;" class="cls-1" cx="24.41" cy="24.61" r="23.9"/></clipPath></defs><title>Asset 2</title><g id="Layer_2" data-name="Layer 2"><g id="Capa_1" data-name="Capa 1"><g id="_Clip_Group_" data-name="&lt;Clip Group&gt;"><circle id="_Clipping_Path_2" data-name="&lt;Clipping Path&gt;" class="cls-1" cx="24.41" cy="24.61" r="23.9"/><g class="cls-2"><g id="oI1W5C.tif"><g id="_Group_" data-name="&lt;Group&gt;"><path id="_Path_" data-name="&lt;Path&gt;" class="cls-3" d="M20.65,48.46h-.49a1.46,1.46,0,0,0-.49-.2V38.44a3.92,3.92,0,0,0,0-.44,3.25,3.25,0,0,0-.09-.4h8.21c0,.29-.12.61.12.87h.79l.26-.18a1.17,1.17,0,0,0,.39-.59h.39c0,.65,0,1.3,0,2a.76.76,0,0,0,.24.58l.18.2h.78a1.06,1.06,0,0,0,.44-.87l.08-.25h.09l.08.24.07-.05v.92l.49.39h.56c.59-.29.51-.84.51-1.41l.4.18v.52a1.12,1.12,0,0,1,.17.18c0,.06,0,.12.12.16a.86.86,0,0,0,.68,0c.38-.13.49-.24.48-.61a.94.94,0,0,1,.17-.53c.33,0,.44.35.68.5h.54l.47-.33V37.61h8.52s.05.06.08.09,0,.07,0,.1a9,9,0,0,1-.69,1,7.52,7.52,0,0,1-1,1.24c-.08.26-.31.39-.48.58a.75.75,0,0,0-.24.49c-.06,0-.14,0-.18,0l-1.52,1.41a7.67,7.67,0,0,1-.86.75c-.19.13-.32.32-.51.42-.53.29-1,.71-1.48,1a5.39,5.39,0,0,0-1.16.75c-.3,0-.48.25-.73.35a1.76,1.76,0,0,0-.71.41c-.21,0-.32.17-.49.23a5.51,5.51,0,0,0-1.08.46.6.6,0,0,1-.24.12c-.5,0-.89.4-1.39.43-.51.29-1.12.27-1.63.55a2.1,2.1,0,0,0-.76.16c-.25.06-.52.07-.78.13a3.53,3.53,0,0,1-.4.09,4.34,4.34,0,0,0-.65.08,5.93,5.93,0,0,1-1.13.11c-.15,0-.32,0-.43,0a1.48,1.48,0,0,1-.6.09,1.57,1.57,0,0,0-.65.08c-.17.09-.41,0-.63,0s-.42,0-.63,0-.43-.08-.64-.09l-1.77-.1s-.08,0-.1,0c-.18-.19-.44,0-.63-.13S20.88,48.49,20.65,48.46Z"/><path id="_Path_2" data-name="&lt;Path&gt;" class="cls-1" d="M19.57.76h.29a3.35,3.35,0,0,0,.68-.15v0h.39c.1,0,.25.09.29-.1h.2c.1,0,.25.09.29-.1h.88c.1,0,.25.09.29-.1h.66s.08-.06.12-.09h2.54s.08.09.12.09h.76c0,.19.2.06.29.1h.78c0,.19.2.06.29.1h.29c0,.15.12.08.2.1h.2v11H20.94c-.05-.29.12-.61-.12-.87-.73-.06-.74,0-1.25.53-.05.05-.06.15-.11.19s-.15.26-.33.24a1,1,0,0,1-.15-.58c0-.63,0-1.27,0-1.89l-.45-.46H18a.93.93,0,0,0-.44.93c-.25.19-.25.19-.49,0V8.84c-.49-.61-.88-.61-1.37,0q0,.41,0,.83a.39.39,0,0,1,0,0l-.32.15-.15-.16c0-.69-.27-1-.74-1a.71.71,0,0,0-.5.21.89.89,0,0,0-.23.82.38.38,0,0,1-.46.14c-.52-.58-.83-.67-1.4,0,0,.24,0,.48,0,.73a3,3,0,0,1-.1,1.08H4.45s-.08-.06-.13-.09a.72.72,0,0,1,0-.28c.15-.23.32-.45.48-.68a.84.84,0,0,0,.07-.21c.32-.4.66-.79,1-1.21s.56-.58.79-.89a4.45,4.45,0,0,1,.74-.81c.53-.43,1-1,1.53-1.36.28-.2.52-.46.79-.68s.47-.35.71-.52c.2.09.1-.24.3-.21a.44.44,0,0,0,.35-.18,1.23,1.23,0,0,1,.53-.37c.17-.1.26-.32.49-.31a17.7,17.7,0,0,1,2.3-1.26,6.5,6.5,0,0,1,1-.39q.24,0,.2-.2h.29q.24,0,.2-.2a.74.74,0,0,0,.53-.1c.19-.16.44-.07.63-.21a.9.9,0,0,1,.6-.17c.07,0,.19,0,.2-.1s.21,0,.27,0a1,1,0,0,1,.61-.16,1.94,1.94,0,0,0,.39-.09C19.37.82,19.53.95,19.57.76Z"/><path id="_Path_3" data-name="&lt;Path&gt;" class="cls-4" d="M29.15.56c.08-.2.28-.12.35-.07s.25,0,.37.07a2.4,2.4,0,0,0,.35.09,6.12,6.12,0,0,1,1.07.25c.48.12,1,.29,1.43.44a2.76,2.76,0,0,1,.36.19h.32l.19.19c.19,0,.43-.07.56.17.23,0,.4.14.59.22s.38.28.64.23c.12.21.43.12.54.35.23-.09.3.22.5.21s.26.32.5.21c.15.12.28.3.45.33s.48.31.78.37a2.15,2.15,0,0,1,.66.41l1.42.94a1.83,1.83,0,0,1,.25.23,6.38,6.38,0,0,0,1,.76,1.82,1.82,0,0,1,.24.24l2,2a3.63,3.63,0,0,1,.35.44c.1.14.23.25.33.4s.42.47.61.73a7.94,7.94,0,0,1,.84,1.17c.2.43.59.75.69,1.23,0,.15.2.27.29.42a1.32,1.32,0,0,1,.27.47c0,.19.29.24.21.45.25.27.25.69.52,1a.22.22,0,0,1,.06.17c0,.15.06.23.14.34s0,.26.07.31c.25.17.12.51.35.7s0,.27.05.42l.13.13a2.4,2.4,0,0,0,.15.52c.14.24.08.55.26.77,0,.41.29.75.23,1.18,0,.13.1.28.18.5a1.7,1.7,0,0,0,.16.87,1,1,0,0,1,0,.47,1.2,1.2,0,0,0,.11.64,1,1,0,0,1,.09.55c0,1,.17,2,.1,3,0,.31-.08.62-.09.94s0,.65,0,1a1.59,1.59,0,0,1-.09.3,3.14,3.14,0,0,0-.1.45c0,.16,0,.33,0,.49s-.08.39-.12.58h-.17a2.19,2.19,0,0,1,0-.77c.1-.24,0-.51.18-.71,0-.44,0-.89.08-1.33a12.63,12.63,0,0,0,0-1.81,9.14,9.14,0,0,0-.08-1.82c-.08-.35,0-.72-.09-1.08a1.78,1.78,0,0,1-.11-.64,1.22,1.22,0,0,0-.12-.69c-.11-.27,0-.55-.16-.81a1.72,1.72,0,0,1-.11-.64c0-.23-.2-.4-.22-.65a2,2,0,0,0-.21-.74,7.35,7.35,0,0,1-.34-.94c-.22-.64-.5-1.26-.78-1.88C47,13.56,46.5,12.77,46,12a5.22,5.22,0,0,0-.53-.85c-.51-.59-.92-1.26-1.44-1.85s-.83-1-1.29-1.46a11.74,11.74,0,0,0-1.4-1.32c-.31-.22-.57-.5-.86-.75s-.38-.33-.59-.48-.66-.45-1-.69-.63-.4-1-.63v9c-.06,0-.14,0-.18,0-.35-.35-.5-.46-.92-.46-1.36,0-2.72,0-4.08,0a3.25,3.25,0,0,1-.09-.4,3.92,3.92,0,0,1,0-.44v-10c-.05-.05-.07-.08-.1-.1a12.51,12.51,0,0,1-1.38-.44h0a2.25,2.25,0,0,1-.58-.12.79.79,0,0,0-.31-.07A3.53,3.53,0,0,1,29.15.56Z"/><path id="_Path_4" data-name="&lt;Path&gt;" class="cls-5" d="M11.95,45.23a1.89,1.89,0,0,0-.41-.26c-.16-.05-.19-.25-.35-.27a1.42,1.42,0,0,1-.21-.06c0-.06,0-.12,0-.18s0-.14-.06-.21V35.61a3.92,3.92,0,0,0,0-.44,3.25,3.25,0,0,0-.09-.4,4.5,4.5,0,0,1,.64.11.25.25,0,0,1,.14.32l-.48.48v.62l.43.43h5.26a1.91,1.91,0,0,0,.67-.16l.18,0v.16a2.58,2.58,0,0,1-1.36.23V47.07a2.42,2.42,0,0,0,.79.3c.2,0,.29.1.28.3h-.2c0-.15-.12-.08-.2-.1s0-.11-.09-.06a.75.75,0,0,1-.2.06v-.17c-.29-.09-.57-.24-.88-.32l-.59-.1c0-.17-.13-.25-.39-.29h-.2q0-.24-.2-.2l-.49-.1q0-.24-.2-.2c-.24-.08-.43-.29-.71-.29-.1-.2-.3-.26-.48-.35a.63.63,0,0,0-.18,0C12.32,45.35,12.21,45.27,11.95,45.23Z"/><path id="_Path_5" data-name="&lt;Path&gt;" class="cls-6" d="M4.32,11.51s.08.09.13.09h7.3V15a1.7,1.7,0,0,0,.39,1.25s0,.1,0,.14H1.78v-.49H2c.15-.38.27-.79.45-1.16a16.79,16.79,0,0,1,1.32-2.41s0-.09,0-.14V12A.23.23,0,0,0,4,11.86C4.08,11.7,4.25,11.65,4.32,11.51Z"/><path id="_Path_6" data-name="&lt;Path&gt;" class="cls-7" d="M1.78,16.4H12.14l.39.25V18H11v2.35H.81c0-.13-.1-.28-.05-.37s0-.28.05-.41v-.1H1V18.25h.2v-.68q.24,0,.2-.2v-.2c.15,0,.08-.12.1-.2l.1-.59Z"/><path id="_Path_7" data-name="&lt;Path&gt;" class="cls-8" d="M17.32,47.67c0-.2-.08-.28-.28-.3a2.42,2.42,0,0,1-.79-.3V36.92a2.58,2.58,0,0,0,1.36-.23v-.16h.2q.24,0,.2-.2a.9.9,0,0,1,.74-.39c.28,0,.55,0,.83,0v1.66a3.25,3.25,0,0,1,.09.4,3.92,3.92,0,0,1,0,.44v9.72s-.07,0-.1,0a1.17,1.17,0,0,0-.69-.2c-.08,0-.16-.06-.25-.1s-.14-.09-.2-.08a1,1,0,0,1-.66-.18c-.07,0-.22-.1-.26.07Z"/><path id="_Path_8" data-name="&lt;Path&gt;" class="cls-9" d="M.81,19.52c0,.13,0,.27-.05.41s0,.24.05.37-.09.08-.09.13c0,.19.07.43,0,.58s0,.45-.11.64,0,.47-.07.71c0,.08,0,.2,0,.24s-.06.4-.09.6a4.78,4.78,0,0,0-.09.64c0,.47,0,.94,0,1.42,0,.08,0,.18,0,.24.16.24,0,.51.1.74A2.22,2.22,0,0,1,.51,27c0,.28.17.55.1.84.16.14.07.33.1.5s.07.36.1.55a5.14,5.14,0,0,0,.11.74c.12.39.19.8.32,1.19s.22.79.35,1.17A21.27,21.27,0,0,0,2.64,34.6c.31.61.61,1.22.94,1.81.24.44.52.86.79,1.28s.71,1,1.09,1.51a17.3,17.3,0,0,0,1.46,1.73c.72.72,1.42,1.46,2.2,2.11,0,0,.09.12.14.13.27,0,.32.32.56.41a2.5,2.5,0,0,1,.59.46.71.71,0,0,0,.45.21c0,.07,0,.14.06.21s0,.12,0,.18c-.18.05-.24-.12-.36-.2A10.62,10.62,0,0,1,9,43.26c-.16-.15-.34-.28-.51-.42a3.48,3.48,0,0,0-.47-.39,2.81,2.81,0,0,1-.53-.51l-.69-.69c-.41-.4-.72-.89-1.12-1.29S5,38.9,4.51,38.41a11.94,11.94,0,0,1-.87-1.25c0-.28-.22-.43-.35-.64s-.23-.42-.35-.64-.2-.37-.28-.57-.28-.67-.43-1-.23-.6-.38-.87-.1-.49-.26-.67-.07-.5-.27-.67c0-.33-.27-.59-.24-.93,0-.12-.11-.24-.18-.41a2.28,2.28,0,0,0,0-.43c0-.13-.15-.25-.15-.37,0-.43-.27-.79-.24-1.23a1.5,1.5,0,0,0-.13-.68.91.91,0,0,1-.06-.37c0-.23,0-.46,0-.68-.22-.15,0-.44-.19-.61,0,0,0-.16,0-.24A6.11,6.11,0,0,0,0,24.63a.45.45,0,0,1,.07-.46c0-.06,0-.18,0-.28,0-.28,0-.55,0-.83a2.69,2.69,0,0,1,.16-.91,1.05,1.05,0,0,0,0-.28,3,3,0,0,1,0-.73c.06-.2.09-.41.16-.61a4.8,4.8,0,0,0,.13-1Z"/><path id="_Path_9" data-name="&lt;Path&gt;" class="cls-4" d="M20.65,48.46c.23,0,.48-.07.71.07s.45-.06.63.13c0,0,.06,0,.1,0l1.77.1c.22,0,.43.07.64.09s.42,0,.63,0,.46.07.63,0a1.57,1.57,0,0,1,.65-.08,1.48,1.48,0,0,0,.6-.09c.11-.06.29,0,.43,0a5.93,5.93,0,0,0,1.13-.11,4.34,4.34,0,0,1,.65-.08,3.53,3.53,0,0,0,.4-.09c.26-.06.53-.07.78-.13a2.1,2.1,0,0,1,.76-.16c.51-.28,1.12-.26,1.63-.55.5,0,.88-.41,1.39-.43a.6.6,0,0,0,.24-.12,5.51,5.51,0,0,1,1.08-.46c.17-.06.28-.26.49-.23a1.76,1.76,0,0,1,.71-.41c.25-.11.44-.35.73-.35a5.39,5.39,0,0,1,1.16-.75c.51-.31.95-.73,1.48-1,.19-.1.32-.29.51-.42a7.67,7.67,0,0,0,.86-.75L43,41.16s.12,0,.18,0,0,.16-.07.21a13,13,0,0,1-1,1c-.25.2-.48.42-.71.63a6.76,6.76,0,0,1-.69.58c-.7.48-1.36,1-2.08,1.45a4.5,4.5,0,0,0-.69.46c-.17.15-.43.12-.55.33-.2-.07-.29.11-.4.2a2.68,2.68,0,0,1-.61.31c-.2.1-.37.29-.62.27-.12.21-.41.15-.55.33,0,0-.05.06-.07.05a.43.43,0,0,0-.46.19c-.22,0-.37.16-.55.19a1.61,1.61,0,0,0-.55.21s-.1,0-.14,0a.49.49,0,0,0-.17,0,.93.93,0,0,0-.15.15.91.91,0,0,0-.62.13.25.25,0,0,1-.16.07.9.9,0,0,0-.53.14.8.8,0,0,1-.22.06c-.08,0-.19,0-.23,0-.26.23-.56.17-.88.18l-.15.2h-.81a.71.71,0,0,1-.6.2,2.8,2.8,0,0,0-1,.18,1.07,1.07,0,0,1-.34,0,5.79,5.79,0,0,0-1.22,0,8.58,8.58,0,0,1-1.72.07c-.34,0-.69-.07-1-.09a7.76,7.76,0,0,1-1.07,0,2.94,2.94,0,0,1-.67-.14,1.09,1.09,0,0,0-.47,0,.91.91,0,0,1-.57-.15Z"/><path id="_Path_10" data-name="&lt;Path&gt;" class="cls-4" d="M45.57,37.7c.06,0,.15,0,.17,0a4.94,4.94,0,0,1,.42-.69c.18-.2.22-.47.38-.67s.13-.06.2-.07a1.92,1.92,0,0,1-.07.21,9.35,9.35,0,0,1-.86,1.44c-.39.56-.83,1.08-1.21,1.64s-.83.89-1.16,1.41c-.06.1-.15.22-.31.17a.75.75,0,0,1,.24-.49c.17-.18.4-.32.48-.58a7.52,7.52,0,0,0,1-1.24,9,9,0,0,0,.69-1S45.57,37.74,45.57,37.7Z"/><path id="_Path_11" data-name="&lt;Path&gt;" class="cls-9" d="M3.74,12.19s0,.11,0,.14a16.79,16.79,0,0,0-1.32,2.41c-.19.37-.31.78-.45,1.16H1.78c.08-.23.14-.46.24-.68Q2.54,14.11,3.08,13c.12-.24.27-.47.41-.7A.22.22,0,0,1,3.74,12.19Z"/><path id="_Path_12" data-name="&lt;Path&gt;" class="cls-10" d="M17.52,47.67c0-.18.19-.12.26-.07a1,1,0,0,0,.66.18c.07,0,.14.06.2.08s.17.11.25.1a1.17,1.17,0,0,1,.69.2s.06,0,.1,0v.1h-.49a1.46,1.46,0,0,0-.49-.2H18.4c0-.15-.12-.08-.2-.1a.52.52,0,0,0-.38-.1A.25.25,0,0,1,17.52,47.67Z"/><path id="_Path_13" data-name="&lt;Path&gt;" class="cls-9" d="M4.32,11.51c-.07.14-.25.2-.31.35a.23.23,0,0,1-.27.13c0-.26.22-.42.32-.64a6.41,6.41,0,0,1,.6-.92.23.23,0,0,1,.25-.1.84.84,0,0,1-.07.21c-.15.23-.33.45-.48.68A.72.72,0,0,0,4.32,11.51Z"/><path id="_Path_14" data-name="&lt;Path&gt;" class="cls-4" d="M47.43,34.77a4.29,4.29,0,0,1,.43-1.07,6.24,6.24,0,0,0,.26-.66c0-.11,0-.27.19-.32s.1.11.09.12c-.26.36-.25.84-.55,1.18-.1.11,0,.27-.1.4a1.26,1.26,0,0,0-.19.36Z"/><path id="_Path_15" data-name="&lt;Path&gt;" class="cls-4" d="M48.5,31.94c.1-.33.19-.67.3-1,0,0,.06-.05.09-.08s.12.2.08.25a1,1,0,0,0-.17.73Z"/><path id="_Path_16" data-name="&lt;Path&gt;" class="cls-9" d="M15.76,47.09c.31.08.59.23.88.32v.17c-.31-.08-.59-.23-.88-.32Z"/><path id="_Path_17" data-name="&lt;Path&gt;" class="cls-4" d="M46.74,36c0-.06,0-.13,0-.18a.52.52,0,0,0,.17-.32c0-.13.13-.2.28-.18,0,.06,0,.13,0,.18a.52.52,0,0,0-.17.32C47,36,46.89,36.07,46.74,36Z"/><path id="_Path_18" data-name="&lt;Path&gt;" class="cls-9" d="M26.9.27h-.56S26.26.2,26.22.17s0-.09.08-.09h.61Z"/><path id="_Path_19" data-name="&lt;Path&gt;" class="cls-9" d="M25.34.17h-.68V0h.68Z"/><path id="_Path_20" data-name="&lt;Path&gt;" class="cls-4" d="M49.09,29.79a.77.77,0,0,1,.2-.59c.15.11.12.25,0,.39l-.1.2Z"/><path id="_Path_21" data-name="&lt;Path&gt;" class="cls-9" d="M20.55.56v0a3.35,3.35,0,0,1-.68.15V.61c.17,0,.34-.1.51-.14S20.55.43,20.55.56Z"/><path id="_Path_22" data-name="&lt;Path&gt;" class="cls-4" d="M19.57,48.26h.1a1.46,1.46,0,0,1,.49.2c-.11.15-.25.12-.39,0l-.2-.1Z"/><path id="_Path_23" data-name="&lt;Path&gt;" class="cls-4" d="M48.9,30.67a.77.77,0,0,1,.2-.59c.16,0,.11.15.09.22a2.22,2.22,0,0,1-.14.37Z"/><path id="_Path_24" data-name="&lt;Path&gt;" class="cls-9" d="M23.68.17s-.08.09-.12.09h-.47V.09a1.67,1.67,0,0,1,.55,0S23.67.14,23.68.17Z"/><path id="_Path_25" data-name="&lt;Path&gt;" class="cls-4" d="M18.69,48.06a1.46,1.46,0,0,1,.49.2c0,.13-.11.11-.17.09a2.37,2.37,0,0,1-.32-.13Z"/><path id="_Path_26" data-name="&lt;Path&gt;" class="cls-4" d="M48.31,32.52a.45.45,0,0,1,.2-.39c.16,0,.11.15.09.21A.24.24,0,0,1,48.31,32.52Z"/><path id="_Path_27" data-name="&lt;Path&gt;" class="cls-9" d="M1,18.74V19l-.1.12-.1.07v-.49Z"/><path id="_Path_28" data-name="&lt;Path&gt;" class="cls-9" d="M14.78,46.7c.26,0,.37.12.39.29C14.91,47,14.8,46.87,14.78,46.7Z"/><path id="_Path_29" data-name="&lt;Path&gt;" class="cls-9" d="M11.95,45.23c.26,0,.37.12.39.29C12.08,45.49,12,45.4,11.95,45.23Z"/><path id="_Path_30" data-name="&lt;Path&gt;" class="cls-9" d="M22.9.27c0,.19-.2.06-.29.1V.21C22.71.18,22.82.09,22.9.27Z"/><path id="_Path_31" data-name="&lt;Path&gt;" class="cls-9" d="M27.39.37c-.1,0-.25.09-.29-.1s.17-.08.29-.08Z"/><path id="_Path_32" data-name="&lt;Path&gt;" class="cls-3" d="M29.15,28.91H19.67v-8.6h9.48Z"/><path id="_Path_33" data-name="&lt;Path&gt;" class="cls-11" d="M29.24,1.36S51.57,5,47.91,28.91A23.53,23.53,0,0,1,33.2,46.83s-4.54,2.53-13.53,1.33L19.57,18l9.58-4.47Z"/><path id="_Path_34" data-name="&lt;Path&gt;" class="cls-12" d="M45.57,37.7s0-.09-.08-.09H37c0-1.22,0-2.44,0-3.66a3,3,0,0,0-.22-.84c0-.12-.17-.22-.27-.32l-.31-.3V31.25h1.36a1.18,1.18,0,0,0,.3-.09c0-.74,0-1.43,0-2.13,0-.08-.07-.21.09-.22a.76.76,0,0,0,.55.1H49.29v.29a.77.77,0,0,0-.2.59v.29a.77.77,0,0,0-.2.59v.2s-.08,0-.09.08c-.1.33-.2.66-.3,1v.2a.45.45,0,0,0-.2.39v.2c-.15.06-.14.21-.19.32a6.24,6.24,0,0,1-.26.66,4.29,4.29,0,0,0-.43,1.07V35q-.24,0-.2.2v.2c-.15,0-.28.05-.28.18a.52.52,0,0,1-.17.32s0,.12,0,.18v.2c-.07,0-.13,0-.2.07s-.19.47-.38.67a4.94,4.94,0,0,0-.42.69S45.63,37.69,45.57,37.7Z"/><polygon id="_Path_35" data-name="&lt;Path&gt;" class="cls-13" points="31.12 32.23 50.24 32.23 47.91 28.91 31.12 28.91 31.12 32.23"/><path id="_Path_36" data-name="&lt;Path&gt;" class="cls-9" d="M21.72.37c0,.19-.2.06-.29.1V.31C21.54.28,21.65.19,21.72.37Z"/><path id="_Path_37" data-name="&lt;Path&gt;" class="cls-9" d="M28.47.46c-.1,0-.25.09-.29-.1s.17-.08.29-.08Z"/><path id="_Path_38" data-name="&lt;Path&gt;" class="cls-9" d="M21.23.46c0,.19-.2.06-.29.1V.41C21,.38,21.16.28,21.23.46Z"/><path id="_Path_39" data-name="&lt;Path&gt;" class="cls-9" d="M19.57.76c0,.19-.2.06-.29.1V.7C19.39.67,19.5.58,19.57.76Z"/><path id="_Path_40" data-name="&lt;Path&gt;" class="cls-14" d="M.81,19.23l.1-.07L1,19v.39H.81Z"/><path id="_Path_41" data-name="&lt;Path&gt;" class="cls-9" d="M1.2,18v.29H1V18Z"/><path id="_Path_42" data-name="&lt;Path&gt;" class="cls-4" d="M18.2,48c.07,0,.19,0,.2.1s-.09.1-.12.09S18.22,48,18.2,48Z"/><path id="_Path_43" data-name="&lt;Path&gt;" class="cls-9" d="M1.39,17.37q0,.24-.2.2Q1.15,17.33,1.39,17.37Z"/><path id="_Path_44" data-name="&lt;Path&gt;" class="cls-4" d="M16.93,47.58c.07,0,.19,0,.2.1s-.09.1-.12.09S16.95,47.65,16.93,47.58Z"/><path id="_Path_45" data-name="&lt;Path&gt;" class="cls-9" d="M1.49,17c0,.07,0,.19-.1.2s-.1-.09-.09-.12S1.42,17,1.49,17Z"/><path id="_Path_46" data-name="&lt;Path&gt;" class="cls-9" d="M1.78,16.4h-.2q0-.24.2-.2Z"/><path id="_Path_47" data-name="&lt;Path&gt;" class="cls-9" d="M14.39,46.5q.24,0,.2.2Q14.35,46.74,14.39,46.5Z"/><path id="_Path_48" data-name="&lt;Path&gt;" class="cls-9" d="M13.71,46.21q.24,0,.2.2Q13.66,46.45,13.71,46.21Z"/><path id="_Path_49" data-name="&lt;Path&gt;" class="cls-4" d="M47.23,35.16q0-.24.2-.2Q47.47,35.21,47.23,35.16Z"/><path id="_Path_50" data-name="&lt;Path&gt;" class="cls-9" d="M15.56,1.93q0,.24-.2.2Q15.32,1.89,15.56,1.93Z"/><path id="_Path_51" data-name="&lt;Path&gt;" class="cls-9" d="M29,.56c-.07,0-.19,0-.2-.1s.09-.1.12-.09S28.94.49,29,.56Z"/><path id="_Path_52" data-name="&lt;Path&gt;" class="cls-9" d="M16.05,1.73q0,.24-.2.2Q15.81,1.69,16.05,1.73Z"/><path id="_Path_53" data-name="&lt;Path&gt;" class="cls-9" d="M18,1.15c0,.15-.12.08-.2.1s0-.17.07-.19S18,1.12,18,1.15Z"/><path id="_Path_54" data-name="&lt;Path&gt;" class="cls-15" d="M19.57,37.61V31.06c0-.66,0-1.32,0-2,0-.07,0-.17.1-.17h9.48v2.26a1.26,1.26,0,0,0,.3.08c.5,0,1,0,1.5,0a.72.72,0,0,1,.35.1v.75a1.06,1.06,0,0,1-.18.12c-.06,0-.14,0-.18,0-.26.25-.6.38-.86.65-.72.75-1.47,1.47-2.2,2.21,0,.7,0,1.4,0,2.09a.57.57,0,0,1-.1.4Z"/><polygon id="_Path_55" data-name="&lt;Path&gt;" class="cls-13" points="19.56 32.34 32.41 32.34 32.77 28.91 19.67 28.91 19.56 32.34"/><path id="_Path_56" data-name="&lt;Path&gt;" class="cls-16" d="M27.78,37.61a.57.57,0,0,0,.1-.4c0-.7,0-1.4,0-2.09.74-.74,1.48-1.46,2.2-2.21.26-.26.6-.4.86-.65,0,0,.12,0,.18,0a1.06,1.06,0,0,0,.18-.12v-.75a.71.71,0,0,1,.35-.1c.37,0,.74,0,1.12,0h3.42v1.23l.31.3c.1.1.24.2.27.32A3,3,0,0,1,37,34c0,1.22,0,2.44,0,3.66v1.92l-.47.33H36c-.24-.16-.35-.48-.68-.5a.94.94,0,0,0-.17.53c0,.37-.1.48-.48.61a.86.86,0,0,1-.68,0c-.1,0-.08-.11-.12-.16a1.12,1.12,0,0,0-.17-.18v-.52l-.4-.18c0,.57.09,1.12-.51,1.41h-.56l-.49-.39V39.5l-.07.05-.08-.24h-.09l-.08.25a1.06,1.06,0,0,1-.44.87h-.78l-.18-.2a.76.76,0,0,1-.24-.58c0-.65,0-1.3,0-2,0,0,.09-.05.09-.08q0-.93,0-1.85a.31.31,0,0,0-.08-.16.24.24,0,0,0-.08-.06l-.32.3V37.7a1.17,1.17,0,0,1-.39.59l-.26.18H27.9C27.66,38.22,27.83,37.9,27.78,37.61Z"/><path id="_Path_57" data-name="&lt;Path&gt;" class="cls-17" d="M29.35,37.7V35.86l.32-.3a.24.24,0,0,1,.08.06.31.31,0,0,1,.08.16q0,.93,0,1.85s-.06.05-.09.08Z"/><path id="_Path_58" data-name="&lt;Path&gt;" class="cls-18" d="M12.53,18V16.65l-.39-.25s0-.11,0-.14A1.7,1.7,0,0,1,11.75,15v-3.4a3,3,0,0,0,.1-1.08c0-.24,0-.49,0-.73.57-.64.88-.55,1.4,0a.38.38,0,0,0,.46-.14.89.89,0,0,1,.23-.82.71.71,0,0,1,.5-.21c.47,0,.71.35.74,1l.15.16.32-.15a.39.39,0,0,0,0,0q0-.41,0-.83c.49-.6.88-.6,1.37,0v.87c.24.18.24.18.49,0A.93.93,0,0,1,18,8.77h.57l.45.46c0,.62,0,1.26,0,1.89a1,1,0,0,0,.15.58c.18,0,.23-.15.33-.24s.06-.14.11-.19c.51-.52.52-.59,1.25-.53.24.26.07.58.12.87V14.1l-2,2c-.08.08-.17.15-.14.28a.51.51,0,0,0-.35.09c-.26.21-.54.37-.82.55,0,.14,0,.3-.06.45s.14.3.06.47h-.88c-.08-.21-.28-.12-.36-.08a2.19,2.19,0,0,1-.89.08Z"/><path id="_Path_59" data-name="&lt;Path&gt;" class="cls-6" d="M18.79,16.4c0-.13.06-.2.14-.28l2-2V11.61h8.21c0,.18,0,.36,0,.53a3.16,3.16,0,0,0,.1,1.13c-.16,0-.09.14-.09.22,0,1,0,1.94,0,2.91Z"/><path id="_Path_60" data-name="&lt;Path&gt;" class="cls-19" d="M29.25,13.27a3.16,3.16,0,0,1-.1-1.13c0-.18,0-.36,0-.53V.56a3.53,3.53,0,0,0,1.1.29.79.79,0,0,1,.31.07,2.25,2.25,0,0,0,.58.12h0a12.51,12.51,0,0,0,1.38.44s0,0,.1.1v10a3.92,3.92,0,0,0,0,.44,3.25,3.25,0,0,0,.09.4,3.12,3.12,0,0,1-.44,0c-.37-.05-.71.13-1.08.1l-.81.68A6.48,6.48,0,0,1,29.25,13.27Z"/><path id="_Path_61" data-name="&lt;Path&gt;" class="cls-20" d="M37.95,19.72v9.09c-.16,0-.09.14-.09.22,0,.7,0,1.39,0,2.13a1.18,1.18,0,0,1-.3.09H32.77V29.89q0-4,0-7.91a.67.67,0,0,1,.1-.5c.18-.05.24.13.36.2h2.54a1.09,1.09,0,0,0,.72-.24c0-.11,0-.21,0-.31A1.16,1.16,0,0,0,35.32,20c-.45,0-.91,0-1.37,0-.18,0-.31,0-.31-.29Z"/><polygon id="_Path_62" data-name="&lt;Path&gt;" class="cls-20" points="37.95 20.73 37.44 3.46 32.68 0.71 32.77 21.98 37.95 20.73"/><path id="_Path_63" data-name="&lt;Path&gt;" class="cls-21" d="M37.95,19.72h-4.3c0,.25.12.3.31.29.46,0,.91,0,1.37,0a1.16,1.16,0,0,1,1.16,1.12c0,.1,0,.2,0,.31a1.09,1.09,0,0,1-.72.24H33.22c-.12-.06-.17-.25-.36-.2a2.35,2.35,0,0,0-.17-.22L31,19.61c-.1-.1-.21-.2-.31-.31s-.15-.23-.25-.33a.65.65,0,0,1-.18-.37c0-.12-.16-.22-.25-.34h-.71c0-.15-.12-.08-.2-.1V16.4c0-1,0-1.94,0-2.91,0-.08-.07-.2.09-.22a6.48,6.48,0,0,0,1.19-.11l.81-.68c.36,0,.71-.15,1.08-.1a3.12,3.12,0,0,0,.44,0c1.36,0,2.72,0,4.08,0,.42,0,.57.1.92.46,0,0,.12,0,.18,0v.59l-.21,0,.11.11L37.5,14c.17.11.22.32.44.28a4.66,4.66,0,0,1,.4.36.71.71,0,0,1,0,1,1.88,1.88,0,0,1-.63.4.58.58,0,0,0,.58.23l.44.44v.69l-.48.44c-.14,0-.38-.1-.5.2a3.25,3.25,0,0,0,.49.38c.09,0,.08.11.12.16.18.2.09.44.07.65a.47.47,0,0,1-.37.42S38,19.67,37.95,19.72Z"/><path id="_Path_64" data-name="&lt;Path&gt;" class="cls-1" d="M10.87,44.25a.71.71,0,0,1-.45-.21,2.5,2.5,0,0,0-.59-.46c-.24-.09-.3-.39-.56-.41-.05,0-.09-.09-.14-.13-.78-.65-1.48-1.39-2.2-2.11A17.3,17.3,0,0,1,5.46,39.2c-.38-.49-.75-1-1.09-1.51s-.55-.84-.79-1.28c-.33-.59-.63-1.2-.94-1.81A21.27,21.27,0,0,1,1.58,32c-.13-.39-.22-.78-.35-1.17S1,30,.92,29.65a5.14,5.14,0,0,1-.11-.74c0-.18-.07-.36-.1-.55s.06-.36-.1-.5c.07-.29-.1-.55-.1-.84a2.22,2.22,0,0,0-.08-.79c-.08-.23.06-.5-.1-.74,0-.06,0-.16,0-.24,0-.47,0-.94,0-1.42a4.78,4.78,0,0,1,.09-.64c0-.2-.09-.42.09-.6s0-.16,0-.24c0-.23-.07-.47.07-.71s0-.42.11-.64,0-.38,0-.58c0,0,.06-.08.09-.13H11v9.19s-.13,0-.14,0c-.08.22-.34.25-.45.46v.69l.68.56-.29.29-.55.16a2.25,2.25,0,0,1-.17.36.36.36,0,0,0,0,.4.94.94,0,0,0,.76.6,1.49,1.49,0,0,1,.34.14l-.75.53V34h-.2l0,.29h.18v.24c.12.1.18.28.39.25a3.25,3.25,0,0,1,.09.4,3.92,3.92,0,0,1,0,.44Z"/><path id="_Path_65" data-name="&lt;Path&gt;" class="cls-22" d="M10.78,34.77c-.21,0-.27-.15-.39-.25v-.83l.75-.53A1.49,1.49,0,0,0,10.8,33a.94.94,0,0,1-.76-.6.36.36,0,0,1,0-.4,2.25,2.25,0,0,0,.17-.36l.55-.16.29-.29-.68-.56V30c.11-.21.36-.24.45-.46,0,0,.09,0,.14,0h4.1s.08,0,.15-.07l-.28-.33h-2l-.61-.74c.05-.26-.1-.56.13-.82h3a.7.7,0,0,1,.53.25c.08.08.15.17.28.14a.56.56,0,0,0,0,.18,2,2,0,0,0,.24.34c.09.1.22.16.31.25a8.73,8.73,0,0,0,1,1,3.51,3.51,0,0,1,.57.64c.18.21.19.53.45.69h.72v4.89c-.28,0-.55,0-.83,0a.9.9,0,0,0-.74.39q-.24,0-.2.2h-.2l-.18,0a1.91,1.91,0,0,1-.67.16H11.51l-.43-.43v-.62l.48-.48a.25.25,0,0,0-.14-.32A4.5,4.5,0,0,0,10.78,34.77Z"/><path id="_Path_66" data-name="&lt;Path&gt;" class="cls-5" d="M16.25,27.93c-.13,0-.21-.05-.28-.14a.7.7,0,0,0-.53-.25h-3c-.23.26-.08.57-.13.82l.61.74h2l.28.33c-.07,0-.11.07-.15.07H11V18h4.52a2.19,2.19,0,0,0,.89-.08c.08,0,.29-.13.36.08,0,0,0,.09-.08.09h-.41Z"/><path id="_Path_67" data-name="&lt;Path&gt;" class="cls-10" d="M17.81,36.53q0-.24.2-.2Q18.05,36.58,17.81,36.53Z"/><path id="_Path_68" data-name="&lt;Path&gt;" class="cls-19" d="M29.15,28.91V18.35c.07,0,.19,0,.2-.1h.71c.09.12.23.22.25.34a.65.65,0,0,0,.18.37c.09.1.16.23.25.33s.2.21.31.31l1.65,1.65a2.35,2.35,0,0,1,.17.22.67.67,0,0,0-.1.5q0,4,0,7.91v1.37c-.37,0-.75,0-1.12,0a.71.71,0,0,0-.35.1.72.72,0,0,0-.35-.1c-.5,0-1,0-1.5,0a1.26,1.26,0,0,1-.3-.08Z"/><path id="_Path_69" data-name="&lt;Path&gt;" class="cls-8" d="M19.67,20.31v8.6c-.13,0-.1.1-.1.17,0,.66,0,1.32,0,2h-.72c-.26-.16-.27-.48-.45-.69a3.51,3.51,0,0,0-.57-.64,8.73,8.73,0,0,1-1-1c-.09-.1-.22-.16-.31-.25a2,2,0,0,1-.24-.34.56.56,0,0,1,0-.18V18.06h.41s.05-.06.08-.09h2.83c0,.67,0,1.31,0,2A.57.57,0,0,0,19.67,20.31Z"/><path id="_Path_70" data-name="&lt;Path&gt;" class="cls-7" d="M19.67,20.31a.57.57,0,0,1-.1-.4c0-.64,0-1.29,0-2h-2c.08-.17-.17-.32-.06-.47s0-.31.06-.45c.28-.18.56-.35.82-.55a.51.51,0,0,1,.35-.09H29.15v3.91Z"/><path id="_Path_71" data-name="&lt;Path&gt;" class="cls-4" d="M37.95,14.25c-.23,0-.28-.17-.44-.28l.34-.35-.11-.11.21,0Z"/><path id="_Path_72" data-name="&lt;Path&gt;" class="cls-14" d="M29.15,18.35v-.2c.07,0,.19,0,.2.1S29.23,18.34,29.15,18.35Z"/><path id="_Path_73" data-name="&lt;Path&gt;" class="cls-10" d="M10.38,34v.29h-.18l0-.29Z"/></g></g></g></g></g></g></svg>