<svg xmlns="http://www.w3.org/2000/svg" viewBox="0 0 73.36 73.36"><defs><style>.cls-1{fill:#006387;}.cls-2{fill:#01556b;}.cls-3{fill:#2b3b4e;}.cls-4{fill:#b5f1f4;}.cls-5{fill:#84dbff;}.cls-6{fill:#3e5768;}.cls-7{fill:#324a5e;}.cls-8{fill:#4cdbc4;}</style></defs><title>Asset 4</title><g id="Layer_2" data-name="Layer 2"><g id="Capa_1" data-name="Capa 1"><g id="_Group_" data-name="&lt;Group&gt;"><g id="_Group_2" data-name="&lt;Group&gt;"><circle id="_Path_" data-name="&lt;Path&gt;" class="cls-1" cx="36.68" cy="36.68" r="36.68"/><path id="_Path_2" data-name="&lt;Path&gt;" class="cls-2" d="M41.77,73A36.7,36.7,0,0,0,73,41.75L55.44,24.17l-.24,1-4.81-4.81L46.06,30.75,17.67,48.91Z"/><rect id="_Path_3" data-name="&lt;Path&gt;" class="cls-3" x="42.24" y="20.38" width="8.15" height="4.08"/><path id="_Path_4" data-name="&lt;Path&gt;" class="cls-4" d="M51.29,50.94H22.07a5.76,5.76,0,0,1-5.76-5.76v-17a5.76,5.76,0,0,1,5.76-5.76H51.29a5.76,5.76,0,0,1,5.76,5.76v17A5.76,5.76,0,0,1,51.29,50.94Z"/><path id="_Path_5" data-name="&lt;Path&gt;" class="cls-5" d="M51.29,22.41H36.6V50.94h14.7a5.76,5.76,0,0,0,5.76-5.76v-17A5.76,5.76,0,0,0,51.29,22.41Z"/><rect id="_Path_6" data-name="&lt;Path&gt;" class="cls-6" x="16.3" y="28.53" width="40.75" height="16.3"/><g id="_Group_3" data-name="&lt;Group&gt;"><rect id="_Path_7" data-name="&lt;Path&gt;" class="cls-7" x="36.6" y="28.53" width="20.46" height="16.3"/><circle id="_Path_8" data-name="&lt;Path&gt;" class="cls-7" cx="31.24" cy="36.68" r="12.23"/></g><path id="_Path_9" data-name="&lt;Path&gt;" class="cls-3" d="M31.24,24.45h-.08V48.9h.08a12.23,12.23,0,1,0,0-24.45Z"/><circle id="_Path_10" data-name="&lt;Path&gt;" class="cls-4" cx="31.24" cy="36.68" r="8.89"/><path id="_Path_11" data-name="&lt;Path&gt;" class="cls-5" d="M31.24,27.79h-.08V45.57h.08a8.89,8.89,0,1,0,0-17.78Z"/><rect id="_Path_12" data-name="&lt;Path&gt;" class="cls-8" x="52.98" y="32.6" width="4.08" height="8.15"/></g></g></g></g></svg>