<svg xmlns="http://www.w3.org/2000/svg" viewBox="0 0 47.8 47.8"><defs><style>.cls-1{fill:#006387;}.cls-2{fill:#01556b;}.cls-3{fill:#6799a5;}.cls-4{fill:#4c7f87;}.cls-5{fill:#03d6db;}.cls-6{fill:#00b1bd;}.cls-7{fill:#2eac04;}.cls-8{fill:#2e9404;}</style></defs><title>Asset 3</title><g id="Layer_2" data-name="Layer 2"><g id="Capa_1" data-name="Capa 1"><g id="_Group_" data-name="&lt;Group&gt;"><circle id="_Path_" data-name="&lt;Path&gt;" class="cls-1" cx="23.9" cy="23.9" r="23.9"/><path id="_Path_2" data-name="&lt;Path&gt;" class="cls-2" d="M26.16,47.69A23.9,23.9,0,0,0,47.68,26.25L35.9,14.48l-11,5.8,1.59,1.59L12.38,33.91Z"/><circle id="_Path_3" data-name="&lt;Path&gt;" class="cls-3" cx="23.9" cy="23.9" r="15.26"/><path id="_Path_4" data-name="&lt;Path&gt;" class="cls-4" d="M23.9,8.64h-.05V39.16h.05a15.26,15.26,0,0,0,0-30.52Z"/><circle id="_Path_5" data-name="&lt;Path&gt;" class="cls-5" cx="23.9" cy="23.9" r="12.39"/><path id="_Path_6" data-name="&lt;Path&gt;" class="cls-6" d="M23.9,11.51h-.05V36.29h.05a12.39,12.39,0,1,0,0-24.78Z"/><path id="_Path_7" data-name="&lt;Path&gt;" class="cls-7" d="M20.79,25.35c-2.4-.75-2.3-3.35-.45-3.86s.9-1.25,1.75-3.25-.45-1.3-1.35-3.15A4.57,4.57,0,0,1,20.51,12a12.4,12.4,0,0,0-8.82,9.81c2.51,2.58,5.74-.72,6.3,1.35s-.2,3.05-.2,3.05a9.85,9.85,0,0,0-1.35,3.65c0,1,3,4.23,4.77,6.14q.56.12,1.13.2a2.89,2.89,0,0,1,1.31-3C25.8,32,26.2,27.75,26.2,27.75l-2-1.45S23.2,26.1,20.79,25.35Z"/><g id="_Group_2" data-name="&lt;Group&gt;"><path id="_Path_8" data-name="&lt;Path&gt;" class="cls-8" d="M26.2,27.75l-2-1.45-.35-.08V33C25.83,31.75,26.2,27.75,26.2,27.75Z"/><path id="_Path_9" data-name="&lt;Path&gt;" class="cls-8" d="M27.4,12c-.46.84-1.73,3.33-1.2,4.33.65,1.2.45-.4,2.1,0s2.9.9,4,.75,2.05,2.25.7,2.9,1.2,5.31,1.2,5.31L35.89,27A12.4,12.4,0,0,0,27.4,12Z"/></g></g></g></g></svg>